<svg width="10" height="9" viewBox="0 0 10 9" fill="none" xmlns="http://www.w3.org/2000/svg">
<path fill-rule="evenodd" clip-rule="evenodd" d="M0.764257 0.264257C0.894432 0.134082 1.10549 0.134082 1.23566 0.264257L4.99996 4.02855L8.76426 0.264257C8.89443 0.134082 9.10549 0.134082 9.23566 0.264257C9.36584 0.394432 9.36584 0.605487 9.23566 0.735662L5.47136 4.49996L9.23566 8.26426C9.36584 8.39443 9.36584 8.60549 9.23566 8.73566C9.10549 8.86584 8.89443 8.86584 8.76426 8.73566L4.99996 4.97136L1.23566 8.73566C1.10549 8.86584 0.894432 8.86584 0.764257 8.73566C0.634082 8.60549 0.634082 8.39443 0.764257 8.26426L4.52855 4.49996L0.764257 0.735662C0.634082 0.605487 0.634082 0.394432 0.764257 0.264257Z" fill="white"/>
</svg>
