<svg width="24" height="24" viewBox="0 0 24 24" fill="none" xmlns="http://www.w3.org/2000/svg">
<path d="M8.74897 9.4967C8.36337 9.4967 8.08642 9.86089 8.19621 10.2236L11.4711 21.0427C11.6344 21.5823 12.4133 21.5823 12.5766 21.0427L15.8517 10.2236C15.9615 9.8609 15.6845 9.4967 15.2989 9.4967H8.74897ZM8.49826 3.283C8.65614 2.91037 8.37708 2.5 7.96581 2.5H4.48288C4.28601 2.5 4.10275 2.59855 3.99683 2.76138L1.09151 7.22755C0.846509 7.60419 1.1222 8.09777 1.57757 8.09777H6.07353C6.30648 8.09777 6.51655 7.96024 6.60598 7.74917L8.49826 3.283ZM15.1286 8.09717C15.5399 8.09714 15.8189 7.68675 15.661 7.31413L13.7686 2.84856C13.6791 2.63752 13.4691 2.5 13.2361 2.5H10.8112C10.5782 2.5 10.3682 2.63756 10.2787 2.84864L8.38694 7.31474C8.22909 7.68739 8.50818 8.09773 8.91946 8.0977L15.1286 8.09717ZM2.08163 9.49747C1.59505 9.49747 1.32722 10.0524 1.63551 10.4217L4.60302 13.9774C4.7668 14.1736 4.99238 14.4401 5.15667 14.6359C5.8899 15.5099 7.9102 17.9346 9.13165 19.4011C9.3337 19.6437 9.72742 19.4309 9.62825 19.1331L6.54935 9.88753C6.47187 9.65487 6.2507 9.49747 6.00124 9.49747H2.08163ZM16.0813 2.5C15.67 2.5 15.391 2.91041 15.5489 3.28304L17.4413 7.74859C17.5308 7.95961 17.7408 8.09712 17.9737 8.09714L22.5276 8.09765C22.9852 8.0977 23.2606 7.59981 23.0111 7.22339L20.0511 2.75734C19.9447 2.59683 19.7628 2.5 19.5677 2.5H16.0813ZM14.4895 19.0742C14.3922 19.371 14.7843 19.5813 14.9864 19.3407L20.544 12.7241C20.7803 12.4429 21.2266 11.9013 21.462 11.6193C21.7498 11.2744 22.1293 10.8222 22.464 10.424C22.7744 10.0547 22.5065 9.49745 22.0187 9.49745H18.0474C17.7969 9.49745 17.5751 9.65611 17.4984 9.89008L14.4895 19.0742Z" fill="#B8CFE6"/>
<path opacity="0.8" d="M4.158 18.2893C4.53783 19.2524 5.30018 20.0147 6.26326 20.3946C5.30018 20.7744 4.53783 21.5368 4.158 22.4998C3.77816 21.5368 3.01582 20.7744 2.05273 20.3946C3.01582 20.0147 3.77816 19.2524 4.158 18.2893Z" fill="#CCDDFF"/>
<path opacity="0.8" d="M20.7367 16.1843C20.9741 16.7863 21.4505 17.2627 22.0525 17.5001C21.4505 17.7375 20.9741 18.214 20.7367 18.8159C20.4993 18.214 20.0228 17.7375 19.4209 17.5001C20.0228 17.2627 20.4993 16.7863 20.7367 16.1843Z" fill="#CCDDFF"/>
<mask id="mask0_2291_3578" style="mask-type:alpha" maskUnits="userSpaceOnUse" x="1" y="2" width="23" height="20">
<path d="M8.74897 9.4967C8.36337 9.4967 8.08642 9.86089 8.19621 10.2236L11.4711 21.0427C11.6344 21.5823 12.4133 21.5823 12.5766 21.0427L15.8517 10.2236C15.9615 9.8609 15.6845 9.4967 15.2989 9.4967H8.74897ZM8.49826 3.283C8.65614 2.91037 8.37708 2.5 7.96581 2.5H4.48288C4.28601 2.5 4.10275 2.59855 3.99683 2.76138L1.09151 7.22755C0.846509 7.60419 1.1222 8.09777 1.57757 8.09777H6.07353C6.30648 8.09777 6.51655 7.96024 6.60598 7.74917L8.49826 3.283ZM15.1286 8.09717C15.5399 8.09714 15.8189 7.68675 15.661 7.31413L13.7686 2.84856C13.6791 2.63752 13.4691 2.5 13.2361 2.5H10.8112C10.5782 2.5 10.3682 2.63756 10.2787 2.84864L8.38694 7.31474C8.22909 7.68739 8.50818 8.09773 8.91946 8.0977L15.1286 8.09717ZM2.08163 9.49747C1.59505 9.49747 1.32722 10.0524 1.63551 10.4217L4.60302 13.9774C4.7668 14.1736 4.99238 14.4401 5.15667 14.6359C5.8899 15.5099 7.9102 17.9346 9.13165 19.4011C9.3337 19.6437 9.72742 19.4309 9.62825 19.1331L6.54935 9.88753C6.47187 9.65487 6.2507 9.49747 6.00124 9.49747H2.08163ZM16.0813 2.5C15.67 2.5 15.391 2.91041 15.5489 3.28304L17.4413 7.74859C17.5308 7.95961 17.7408 8.09712 17.9737 8.09714L22.5276 8.09765C22.9852 8.0977 23.2606 7.59981 23.0111 7.22339L20.0511 2.75734C19.9447 2.59683 19.7628 2.5 19.5677 2.5H16.0813ZM14.4895 19.0742C14.3922 19.371 14.7843 19.5813 14.9864 19.3407L20.544 12.7241C20.7803 12.4429 21.2266 11.9013 21.462 11.6193C21.7498 11.2744 22.1293 10.8222 22.464 10.424C22.7744 10.0547 22.5065 9.49745 22.0187 9.49745H18.0474C17.7969 9.49745 17.5751 9.65611 17.4984 9.89008L14.4895 19.0742Z" fill="#B8C7E6"/>
</mask>
<g mask="url(#mask0_2291_3578)">
<path fill-rule="evenodd" clip-rule="evenodd" d="M22.579 12.0965C22.579 13.342 22.579 16.4473 18.8948 19.8683C18.8948 11.7104 14.3283 8.28937 8.63163 8.28937C5.47594 8.28937 1.52637 9.81141 1.52637 9.81141C2.57216 5.02814 6.83281 1.44727 11.9298 1.44727C17.8112 1.44727 22.579 6.21507 22.579 12.0965Z" fill="white" fill-opacity="0.6"/>
</g>
</svg>
