<svg width="32" height="32" viewBox="0 0 32 32" fill="none" xmlns="http://www.w3.org/2000/svg">
<g filter="url(#filter0_i_2549_3766)">
<rect width="32" height="32" rx="16" fill="black" fill-opacity="0.1"/>
<circle cx="16" cy="16" r="11.6667" fill="url(#paint0_linear_2549_3766)"/>
<g filter="url(#filter1_i_2549_3766)">
<circle cx="16" cy="16" r="10.5" fill="url(#paint1_linear_2549_3766)"/>
</g>
<circle cx="16" cy="16" r="10" stroke="#2E2E4D"/>
<path d="M16.0479 8.41666L11.3333 16.3302L16.0479 18.9398L20.7625 16.3302L16.0479 8.41666Z" fill="#17204D" fill-opacity="0.5"/>
<path d="M16.0479 13.9221L11.3333 16.3302L16.0479 18.9398L20.7625 16.3302L16.0479 13.9221Z" fill="#17204D" fill-opacity="0.5"/>
<path d="M16.0479 23.5833L11.3333 17.1465L16.0479 19.7561L20.7625 17.1465L16.0479 23.5833Z" fill="#17204D" fill-opacity="0.5"/>
<path d="M20.7624 17.1464L16.0478 19.7561V23.5833L20.7624 17.1464ZM20.7624 16.3302L16.0478 8.41666V18.9398L20.7624 16.3302Z" fill="#17204D" fill-opacity="0.5"/>
<path d="M16.0478 18.9398L20.7624 16.3302L16.0478 13.9221V18.9398Z" fill="#17204D" fill-opacity="0.5"/>
</g>
<defs>
<filter id="filter0_i_2549_3766" x="0" y="0" width="32" height="32" filterUnits="userSpaceOnUse" color-interpolation-filters="sRGB">
<feFlood flood-opacity="0" result="BackgroundImageFix"/>
<feBlend mode="normal" in="SourceGraphic" in2="BackgroundImageFix" result="shape"/>
<feColorMatrix in="SourceAlpha" type="matrix" values="0 0 0 0 0 0 0 0 0 0 0 0 0 0 0 0 0 0 127 0" result="hardAlpha"/>
<feOffset dy="-1"/>
<feComposite in2="hardAlpha" operator="arithmetic" k2="-1" k3="1"/>
<feColorMatrix type="matrix" values="0 0 0 0 1 0 0 0 0 1 0 0 0 0 1 0 0 0 0.1 0"/>
<feBlend mode="normal" in2="shape" result="effect1_innerShadow_2549_3766"/>
</filter>
<filter id="filter1_i_2549_3766" x="5.5" y="5.5" width="21" height="21" filterUnits="userSpaceOnUse" color-interpolation-filters="sRGB">
<feFlood flood-opacity="0" result="BackgroundImageFix"/>
<feBlend mode="normal" in="SourceGraphic" in2="BackgroundImageFix" result="shape"/>
<feColorMatrix in="SourceAlpha" type="matrix" values="0 0 0 0 0 0 0 0 0 0 0 0 0 0 0 0 0 0 127 0" result="hardAlpha"/>
<feOffset dy="2"/>
<feComposite in2="hardAlpha" operator="arithmetic" k2="-1" k3="1"/>
<feColorMatrix type="matrix" values="0 0 0 0 1 0 0 0 0 1 0 0 0 0 1 0 0 0 0.6 0"/>
<feBlend mode="normal" in2="shape" result="effect1_innerShadow_2549_3766"/>
</filter>
<linearGradient id="paint0_linear_2549_3766" x1="16" y1="4.33334" x2="16" y2="27.6667" gradientUnits="userSpaceOnUse">
<stop stop-color="#E1E6F0"/>
<stop offset="1" stop-color="#939CCC"/>
</linearGradient>
<linearGradient id="paint1_linear_2549_3766" x1="16" y1="5.5" x2="16" y2="26.5" gradientUnits="userSpaceOnUse">
<stop stop-color="#E1E6F0"/>
<stop offset="1" stop-color="#939CCC"/>
</linearGradient>
</defs>
</svg>
