<svg width="32" height="32" viewBox="0 0 32 32" fill="none" xmlns="http://www.w3.org/2000/svg">
<g filter="url(#filter0_i_2549_3786)">
<rect width="32" height="32" rx="16" fill="black" fill-opacity="0.1"/>
<circle cx="16" cy="16" r="11.6667" fill="url(#paint0_linear_2549_3786)"/>
<g filter="url(#filter1_i_2549_3786)">
<circle cx="16" cy="16" r="10.5" fill="url(#paint1_linear_2549_3786)"/>
</g>
<circle cx="16" cy="16" r="10" stroke="black" stroke-opacity="0.4"/>
<path d="M20.5488 11.3333H11.4029V13.465H14.8797V16.5926H17.0817V13.465H20.5488V11.3333Z" fill="#0A332C"/>
<path d="M16 16.9277C13.1316 16.9277 10.8041 16.4902 10.8041 15.9503C10.8041 15.4104 13.1316 14.9729 16 14.9729C18.8684 14.9729 21.1959 15.4104 21.1959 15.9503C21.1959 16.4902 18.8684 16.9277 16 16.9277ZM21.8333 16.1086C21.8333 15.4104 19.2257 14.8519 16 14.8519C12.7743 14.8519 10.1667 15.4198 10.1667 16.1086C10.1667 16.7229 12.1948 17.2349 14.8797 17.3466V21.8333H17.0817V17.3466C19.7859 17.2349 21.8333 16.7229 21.8333 16.1086Z" fill="#0A332C"/>
</g>
<defs>
<filter id="filter0_i_2549_3786" x="0" y="0" width="32" height="32" filterUnits="userSpaceOnUse" color-interpolation-filters="sRGB">
<feFlood flood-opacity="0" result="BackgroundImageFix"/>
<feBlend mode="normal" in="SourceGraphic" in2="BackgroundImageFix" result="shape"/>
<feColorMatrix in="SourceAlpha" type="matrix" values="0 0 0 0 0 0 0 0 0 0 0 0 0 0 0 0 0 0 127 0" result="hardAlpha"/>
<feOffset dy="-1"/>
<feComposite in2="hardAlpha" operator="arithmetic" k2="-1" k3="1"/>
<feColorMatrix type="matrix" values="0 0 0 0 1 0 0 0 0 1 0 0 0 0 1 0 0 0 0.1 0"/>
<feBlend mode="normal" in2="shape" result="effect1_innerShadow_2549_3786"/>
</filter>
<filter id="filter1_i_2549_3786" x="5.5" y="5.5" width="21" height="21" filterUnits="userSpaceOnUse" color-interpolation-filters="sRGB">
<feFlood flood-opacity="0" result="BackgroundImageFix"/>
<feBlend mode="normal" in="SourceGraphic" in2="BackgroundImageFix" result="shape"/>
<feColorMatrix in="SourceAlpha" type="matrix" values="0 0 0 0 0 0 0 0 0 0 0 0 0 0 0 0 0 0 127 0" result="hardAlpha"/>
<feOffset dy="2"/>
<feComposite in2="hardAlpha" operator="arithmetic" k2="-1" k3="1"/>
<feColorMatrix type="matrix" values="0 0 0 0 1 0 0 0 0 1 0 0 0 0 1 0 0 0 0.5 0"/>
<feBlend mode="normal" in2="shape" result="effect1_innerShadow_2549_3786"/>
</filter>
<linearGradient id="paint0_linear_2549_3786" x1="16" y1="4.33331" x2="16" y2="27.6666" gradientUnits="userSpaceOnUse">
<stop stop-color="#29CC96"/>
<stop offset="1" stop-color="#1F9970"/>
</linearGradient>
<linearGradient id="paint1_linear_2549_3786" x1="16" y1="5.5" x2="16" y2="26.5" gradientUnits="userSpaceOnUse">
<stop stop-color="#29CC96"/>
<stop offset="1" stop-color="#1F9970"/>
</linearGradient>
</defs>
</svg>
