<svg width="48" height="48" viewBox="0 0 48 48" fill="none" xmlns="http://www.w3.org/2000/svg">
<circle cx="24" cy="24" r="20" fill="url(#paint0_linear_1861_2909)"/>
<g filter="url(#filter0_i_1861_2909)">
<circle cx="24" cy="24" r="18" fill="url(#paint1_linear_1861_2909)"/>
</g>
<circle cx="24" cy="24" r="17.5" stroke="#661414" stroke-opacity="0.4"/>
<g filter="url(#filter1_i_1861_2909)">
<path fill-rule="evenodd" clip-rule="evenodd" d="M32.0771 33.0783C29.681 35.2502 26.1525 36.637 22.1851 36.052L21.9417 36.0137L20.8539 33.0875C20.8099 32.9692 20.7939 32.8423 20.8071 32.7169C20.8515 32.2937 21.2112 31.9799 21.6285 31.9838L21.7074 31.9883L32.0771 33.0783ZM29.4252 30.7352L35.8327 22.0936L35.8663 22.2956C36.0808 23.6714 36.495 28.1928 32.983 32.1671L32.8323 32.3347L29.9978 32.0368C29.8522 32.0215 29.7134 31.9674 29.5957 31.8803C29.2536 31.627 29.1658 31.1579 29.3812 30.8008L29.4252 30.7352ZM14.753 16.7123L15.3001 16.7529C23.3938 17.3682 26.4057 18.2447 26.1199 20.5096C26.0723 20.9627 26.86 20.7314 27.9158 21.6558C28.943 22.5551 29.6191 23.5542 29.2331 25.7349L29.1984 25.9194C29.1984 25.9194 27.9524 23.5984 22.6326 24.6733C22.2213 24.7564 26.8056 24.8166 27.1097 26.8917C24.7712 25.3688 21.5226 25.6273 19.8624 27.3062C18.2418 28.945 18.4941 31.541 20.7213 35.7367C19.335 35.3449 18.0599 34.7149 16.9369 33.8968L16.8719 33.7714C16.5084 33.0427 15.612 30.7938 16.3603 27.4939L16.3009 27.579C16.0855 27.9133 15.356 29.2791 15.323 32.4856C14.0571 31.1619 13.0971 29.5559 12.5396 27.7855C13.0105 26.7097 14.463 24.4632 16.3605 23.3754C15.1742 23.5182 12.1762 26.3 12.1762 26.3L12.1326 26.039C11.964 24.9536 11.8752 23.3721 12.3255 21.3738C13.1045 20.8753 14.7388 20.0033 16.7094 19.6646C14.5067 19.3508 12.6262 20.331 12.6262 20.331C13.652 17.6145 14.753 16.7123 14.753 16.7123ZM21.1077 19.8863L20.8916 19.8573C21.0378 21.211 22.0898 21.6321 22.7476 21.7634C23.4054 21.8946 24.2835 21.0553 24.2835 21.0553C23.207 20.2657 21.6695 19.9714 21.1077 19.8863ZM27.7538 12.7823C31.4729 14 34.3275 16.9569 35.4714 20.6081L35.5343 20.8155L33.6829 23.1305C33.6012 23.2326 33.4962 23.3137 33.3767 23.367C32.9879 23.5403 32.5359 23.3862 32.3304 23.0233L32.2948 22.9528L27.7538 12.7823ZM15.6708 15.5394C18.0913 13.2132 21.9031 11.6006 26.2483 12.395L26.4902 12.4416L27.8585 15.5925C27.9147 15.7219 27.9365 15.8636 27.9217 16.0039C27.8772 16.4271 27.5176 16.7409 27.1003 16.737L27.0214 16.7324L15.6708 15.5394Z" fill="black" fill-opacity="0.75"/>
</g>
<defs>
<filter id="filter0_i_1861_2909" x="6" y="6" width="36" height="36" filterUnits="userSpaceOnUse" color-interpolation-filters="sRGB">
<feFlood flood-opacity="0" result="BackgroundImageFix"/>
<feBlend mode="normal" in="SourceGraphic" in2="BackgroundImageFix" result="shape"/>
<feColorMatrix in="SourceAlpha" type="matrix" values="0 0 0 0 0 0 0 0 0 0 0 0 0 0 0 0 0 0 127 0" result="hardAlpha"/>
<feOffset dy="2"/>
<feComposite in2="hardAlpha" operator="arithmetic" k2="-1" k3="1"/>
<feColorMatrix type="matrix" values="0 0 0 0 1 0 0 0 0 1 0 0 0 0 1 0 0 0 0.5 0"/>
<feBlend mode="normal" in2="shape" result="effect1_innerShadow_1861_2909"/>
</filter>
<filter id="filter1_i_1861_2909" x="11.9954" y="12.1901" width="24.0076" height="23.9962" filterUnits="userSpaceOnUse" color-interpolation-filters="sRGB">
<feFlood flood-opacity="0" result="BackgroundImageFix"/>
<feBlend mode="normal" in="SourceGraphic" in2="BackgroundImageFix" result="shape"/>
<feColorMatrix in="SourceAlpha" type="matrix" values="0 0 0 0 0 0 0 0 0 0 0 0 0 0 0 0 0 0 127 0" result="hardAlpha"/>
<feOffset dy="1"/>
<feComposite in2="hardAlpha" operator="arithmetic" k2="-1" k3="1"/>
<feColorMatrix type="matrix" values="0 0 0 0 0 0 0 0 0 0 0 0 0 0 0 0 0 0 0.2 0"/>
<feBlend mode="normal" in2="shape" result="effect1_innerShadow_1861_2909"/>
</filter>
<linearGradient id="paint0_linear_1861_2909" x1="24" y1="4" x2="24" y2="44" gradientUnits="userSpaceOnUse">
<stop stop-color="#FFCA80"/>
<stop offset="1" stop-color="#F28F49"/>
</linearGradient>
<linearGradient id="paint1_linear_1861_2909" x1="24" y1="6" x2="24" y2="42" gradientUnits="userSpaceOnUse">
<stop stop-color="#FFCA80"/>
<stop offset="1" stop-color="#F28F49"/>
</linearGradient>
</defs>
</svg>
