<svg width="32" height="32" viewBox="0 0 32 32" fill="none" xmlns="http://www.w3.org/2000/svg">
<g filter="url(#filter0_i_2549_3822)">
<rect width="32" height="32" rx="16" fill="black" fill-opacity="0.1"/>
<circle cx="16" cy="16" r="11.6667" fill="url(#paint0_linear_2549_3822)"/>
<circle cx="16" cy="16" r="10" stroke="black" stroke-opacity="0.3"/>
<path d="M24.75 11.3333C24.75 11.3333 22.4167 6.95833 16 6.95833C9.58333 6.95833 7.25 11.3333 7.25 11.3333C7.25 11.3333 9.58333 6.08333 16 6.08333C22.4167 6.08333 24.75 11.3333 24.75 11.3333Z" fill="white" fill-opacity="0.8"/>
<path d="M16.516 9.07338L15.2691 8.85351L14.9181 10.8437L12.4407 10.4069L12.2092 11.7199L13.1341 11.883C13.547 11.9558 13.7316 12.116 13.6734 12.4464L12.6992 17.971C12.7041 18.0463 12.6918 18.1217 12.6631 18.1915C12.6343 18.2612 12.5901 18.3235 12.5336 18.3735C12.4771 18.4236 12.4099 18.46 12.3372 18.4801C12.2645 18.5002 12.1881 18.5033 12.114 18.4894L11.1643 18.3219L10.8959 19.6029L13.2989 20.0266L12.9393 22.0663L14.1862 22.2862L14.5459 20.2465L15.3717 20.3921L15.012 22.4318L16.259 22.6517L16.6187 20.612L16.8912 20.66C19.4429 21.11 20.5134 20.013 20.8133 18.3118C20.8903 17.8283 20.8066 17.3328 20.5751 16.9014C20.3436 16.47 19.977 16.1263 19.5316 15.9231C19.9434 15.7793 20.3009 15.512 20.5554 15.1576C20.8099 14.8033 20.9489 14.3791 20.9536 13.9429C21.0078 12.5731 19.5193 11.7912 18.2665 11.4596L18.6218 9.44469L17.3501 9.22045L16.9992 11.2106L16.1734 11.065L16.5243 9.07483L16.516 9.07338ZM18.3719 17.8643C18.1957 18.8635 17.4569 19.2867 16.1274 19.0523L14.7978 18.8178L15.2667 16.1588L16.8687 16.4412C17.2403 16.5068 18.5893 16.8724 18.4131 17.8716L18.3719 17.8643ZM16.7477 12.5883C17.3671 12.6975 18.5786 13.0218 18.3995 14.0375C18.361 14.3426 18.2128 14.6232 17.9826 14.8271C17.7524 15.0309 17.4558 15.144 17.1484 15.1452L15.4967 14.854L15.9336 12.3766L16.8254 12.5338L16.7477 12.5883Z" fill="#331F14"/>
</g>
<defs>
<filter id="filter0_i_2549_3822" x="0" y="0" width="32" height="32" filterUnits="userSpaceOnUse" color-interpolation-filters="sRGB">
<feFlood flood-opacity="0" result="BackgroundImageFix"/>
<feBlend mode="normal" in="SourceGraphic" in2="BackgroundImageFix" result="shape"/>
<feColorMatrix in="SourceAlpha" type="matrix" values="0 0 0 0 0 0 0 0 0 0 0 0 0 0 0 0 0 0 127 0" result="hardAlpha"/>
<feOffset dy="-1"/>
<feComposite in2="hardAlpha" operator="arithmetic" k2="-1" k3="1"/>
<feColorMatrix type="matrix" values="0 0 0 0 1 0 0 0 0 1 0 0 0 0 1 0 0 0 0.1 0"/>
<feBlend mode="normal" in2="shape" result="effect1_innerShadow_2549_3822"/>
</filter>
<linearGradient id="paint0_linear_2549_3822" x1="16" y1="4.33333" x2="16" y2="27.6667" gradientUnits="userSpaceOnUse">
<stop stop-color="#FFDD99"/>
<stop offset="1" stop-color="#FF9900"/>
</linearGradient>
</defs>
</svg>
