<svg width="32" height="32" viewBox="0 0 32 32" fill="none" xmlns="http://www.w3.org/2000/svg">
<g filter="url(#filter0_i_2549_3751)">
<rect width="32" height="32" rx="16" fill="black" fill-opacity="0.1"/>
<circle cx="16" cy="16" r="11.6667" fill="url(#paint0_linear_2549_3751)"/>
<g filter="url(#filter1_i_2549_3751)">
<circle cx="16" cy="16" r="10.5" fill="url(#paint1_linear_2549_3751)"/>
</g>
<circle cx="16" cy="16" r="10" stroke="#268080"/>
<path d="M20.4418 10.5475C20.6708 10.7409 20.8417 11.3443 20.3477 11.4966C19.8536 11.6488 19.7066 11.0537 19.579 10.8333C19.4515 10.613 18.9791 10.1059 18.1801 11.4966C17.9837 11.9702 17.9299 11.8093 17.4831 13.6888C17.418 14.0474 17.3556 14.3889 17.2957 14.7134L19.3995 14.9654V15.7349L17.1573 15.4529C17.0755 15.8867 16.9987 16.284 16.927 16.6449L19.1557 16.9121V17.6825L16.7769 17.3832L16.7721 17.4071C16.197 20.8533 14.4233 22.4448 13.7909 22.4448C13.1584 22.4448 12.6375 22.5411 12.3022 22.2245C11.9669 21.9078 11.7591 21.668 12.0675 21.2632C12.8049 21.1765 12.6965 21.6614 12.9376 21.8085C13.1937 21.9713 13.4878 22.0646 13.7909 22.0792C14.0077 22.0792 14.3981 22.0792 15.0523 19.7668C15.3086 18.7778 15.4899 17.951 15.6313 17.2392L13.3133 16.9494V16.212L15.7714 16.5066C15.853 16.0646 15.922 15.6698 15.9883 15.3059L13.5553 14.9997V14.2622L16.1358 14.5715L16.1401 14.5585C16.3098 13.7388 16.5679 12.9398 16.9101 12.1758C17.1174 11.7212 18.0257 10.2673 19.1405 10.1831C20.2553 10.099 20.2128 10.3562 20.4418 10.5475V10.5475Z" fill="#0F3333"/>
</g>
<defs>
<filter id="filter0_i_2549_3751" x="0" y="0" width="32" height="32" filterUnits="userSpaceOnUse" color-interpolation-filters="sRGB">
<feFlood flood-opacity="0" result="BackgroundImageFix"/>
<feBlend mode="normal" in="SourceGraphic" in2="BackgroundImageFix" result="shape"/>
<feColorMatrix in="SourceAlpha" type="matrix" values="0 0 0 0 0 0 0 0 0 0 0 0 0 0 0 0 0 0 127 0" result="hardAlpha"/>
<feOffset dy="-1"/>
<feComposite in2="hardAlpha" operator="arithmetic" k2="-1" k3="1"/>
<feColorMatrix type="matrix" values="0 0 0 0 1 0 0 0 0 1 0 0 0 0 1 0 0 0 0.1 0"/>
<feBlend mode="normal" in2="shape" result="effect1_innerShadow_2549_3751"/>
</filter>
<filter id="filter1_i_2549_3751" x="5.5" y="5.5" width="21" height="21" filterUnits="userSpaceOnUse" color-interpolation-filters="sRGB">
<feFlood flood-opacity="0" result="BackgroundImageFix"/>
<feBlend mode="normal" in="SourceGraphic" in2="BackgroundImageFix" result="shape"/>
<feColorMatrix in="SourceAlpha" type="matrix" values="0 0 0 0 0 0 0 0 0 0 0 0 0 0 0 0 0 0 127 0" result="hardAlpha"/>
<feOffset dy="2"/>
<feComposite in2="hardAlpha" operator="arithmetic" k2="-1" k3="1"/>
<feColorMatrix type="matrix" values="0 0 0 0 1 0 0 0 0 1 0 0 0 0 1 0 0 0 0.6 0"/>
<feBlend mode="normal" in2="shape" result="effect1_innerShadow_2549_3751"/>
</filter>
<linearGradient id="paint0_linear_2549_3751" x1="16" y1="4.33331" x2="16" y2="27.6666" gradientUnits="userSpaceOnUse">
<stop stop-color="#3DCCCC"/>
<stop offset="1" stop-color="#2E9999"/>
</linearGradient>
<linearGradient id="paint1_linear_2549_3751" x1="16" y1="5.5" x2="16" y2="26.5" gradientUnits="userSpaceOnUse">
<stop stop-color="#3DCCCC"/>
<stop offset="1" stop-color="#2E9999"/>
</linearGradient>
</defs>
</svg>
