<?xml version="1.0" encoding="utf-8"?>
<!-- Generator: Adobe Illustrator 24.0.2, SVG Export Plug-In . SVG Version: 6.00 Build 0)  -->
<svg version="1.1" id="Layer_1" xmlns="http://www.w3.org/2000/svg" xmlns:xlink="http://www.w3.org/1999/xlink" x="0px" y="0px"
	 viewBox="0 0 32.2 32.2" style="enable-background:new 0 0 32.2 32.2;" xml:space="preserve">
<style type="text/css">
	.st0{fill-opacity:0.1;}
	.st1{fill:none;stroke:#000000;stroke-opacity:0.4;}
	.st2{fill:#EF0027;}
	.st3{fill:#FFFFFF;}
	.st4{fill:none;stroke:#000000;stroke-opacity:0.3;}
	.st5{fill:#FFFFFF;fill-opacity:0.8;}
</style>
<g>
	<path class="st0" d="M16.1-0.1L16.1-0.1c8.8,0,16,7.2,16,16l0,0c0,8.8-7.2,16-16,16l0,0c-8.8,0-16-7.2-16-16l0,0
		C0.1,7.1,7.2-0.1,16.1-0.1z"/>
	<circle class="st1" cx="16.1" cy="15.9" r="10"/>
</g>
<g>
	<g id="Layer_2_1_">
		<g>
			<circle class="st2" cx="16.1" cy="15.9" r="10.5"/>
			<path class="st3" d="M20,11.9l-9.5-1.8l5,12.6l7-8.5L20,11.9L20,11.9z M19.9,12.7l1.5,1.4l-4,0.7L19.9,12.7z M16.5,14.6l-4.2-3.5
				l6.9,1.3L16.5,14.6z M16.2,15.2l-0.7,5.7l-3.7-9.3L16.2,15.2L16.2,15.2z M16.8,15.5l4.4-0.8l-5,6.2L16.8,15.5L16.8,15.5z"/>
		</g>
	</g>
	<g id="Layer_1_1_">
		<circle class="st4" cx="16.1" cy="15.9" r="10"/>
		<path class="st5" d="M24.9,11.2c0,0-2.3-4.4-8.8-4.4c-6.4,0.1-8.8,4.4-8.8,4.4S9.7,6,16.1,6S24.9,11.2,24.9,11.2z"/>
	</g>
</g>
</svg>
