<svg width="24" height="24" viewBox="0 0 24 24" fill="none" xmlns="http://www.w3.org/2000/svg">
<path d="M12 22.5C6.47715 22.5 2 18.0229 2 12.5C2 6.97715 6.47715 2.5 12 2.5C17.5229 2.5 22 6.97715 22 12.5C22 18.0229 17.5229 22.5 12 22.5ZM13.0361 9.01065C12.4503 8.42485 11.5007 8.42485 10.9148 9.01065L8.51065 11.4148C7.92485 12.0006 7.92485 12.9503 8.51065 13.5361L10.9148 15.9403C11.5006 16.5261 12.4503 16.5261 13.0361 15.9403L15.4403 13.5361C16.0261 12.9503 16.0261 12.0007 15.4403 11.4148L13.0361 9.01065Z" fill="url(#paint0_linear_2291_3581)"/>
<defs>
<linearGradient id="paint0_linear_2291_3581" x1="12" y1="2.5" x2="12" y2="22.5" gradientUnits="userSpaceOnUse">
<stop stop-color="#CCA38F"/>
<stop offset="1" stop-color="#664D47"/>
</linearGradient>
</defs>
</svg>
